<svg version="1.1" id="Layer_1" xmlns="http://www.w3.org/2000/svg" xmlns:xlink="http://www.w3.org/1999/xlink" x="0px" y="0px"
	 width="100%" viewBox="0 0 1280 1280" enable-background="new 0 0 1280 1280" xml:space="preserve">
<path fill="#000000" opacity="1.000000" stroke="none" 
	d="
M1.000000,430.000000 
	C1.000000,286.666656 1.000000,143.833328 1.000000,1.000000 
	C427.666656,1.000000 854.333313,1.000000 1281.000000,1.000000 
	C1281.000000,427.666656 1281.000000,854.333313 1281.000000,1281.000000 
	C854.333313,1281.000000 427.666656,1281.000000 1.000000,1281.000000 
	C1.000000,997.500000 1.000000,714.000000 1.000000,430.000000 
M996.247192,449.639160 
	C991.789917,458.383789 987.332642,467.128387 982.382751,476.359467 
	C969.243958,502.008636 956.100281,527.655273 942.982239,553.315063 
	C942.386475,554.480286 942.022156,555.763794 941.016663,557.364502 
	C936.912659,565.784668 932.808655,574.204834 928.104980,582.989807 
	C927.496826,583.975342 926.817261,584.924316 926.291016,585.951782 
	C913.937744,610.073242 901.595764,634.200562 889.277466,658.339966 
	C888.684875,659.501160 888.329102,660.783142 887.298218,662.382263 
	C883.142029,670.858704 878.985779,679.335083 874.257141,688.194763 
	C868.673218,698.953674 863.320557,709.840637 857.452087,720.442078 
	C848.175232,737.200745 840.618042,754.637756 834.882996,773.454651 
	C832.758179,777.338745 830.771790,781.307068 828.473083,785.085449 
	C825.682617,789.672180 822.628479,794.098572 819.073608,798.879700 
	C817.784180,800.164856 816.475586,801.431396 815.208069,802.737793 
	C783.996704,834.907104 746.209106,853.567200 701.225830,853.752747 
	C592.909729,854.199646 484.588776,853.479187 376.269806,853.230286 
	C374.191467,853.225525 372.113129,853.229614 369.956787,853.229614 
	C369.851776,855.163818 369.745728,856.318054 369.732605,857.473389 
	C369.063751,916.297058 368.389740,975.120728 367.757233,1033.944702 
	C367.674927,1041.596924 367.810669,1049.251587 367.535004,1057.672974 
	C365.367493,1087.582153 374.380890,1114.965210 387.042999,1141.344849 
	C396.772461,1161.614746 411.293213,1178.006592 430.498077,1189.854370 
	C460.439941,1208.325684 493.850128,1216.665283 528.320068,1217.548584 
	C580.941895,1218.896729 633.633850,1217.456177 686.296265,1217.276611 
	C812.956177,1216.844604 939.616150,1216.457886 1066.276123,1216.045654 
	C1067.605347,1216.041382 1068.996216,1216.177002 1070.254028,1215.847900 
	C1087.930908,1211.223755 1105.749390,1207.054688 1123.217773,1201.737915 
	C1153.722046,1192.453369 1173.372925,1172.077271 1182.428711,1141.446167 
	C1187.799927,1123.277832 1190.880737,1104.717651 1190.971558,1085.822388 
	C1192.327148,803.826294 1193.614868,521.829712 1194.639771,239.832260 
	C1194.687744,226.614517 1193.122681,213.192795 1190.573975,200.206558 
	C1185.843262,176.101562 1175.220215,154.885971 1155.729126,138.957397 
	C1154.393311,137.865677 1152.967041,136.884430 1151.048462,135.453171 
	C1150.985352,149.633286 1145.976807,161.343918 1139.512817,172.542145 
	C1135.772095,179.022400 1131.346924,185.133362 1127.932251,191.771866 
	C1102.050537,242.087189 1076.342896,292.491974 1049.978760,343.215881 
	C1045.652100,352.127350 1041.325439,361.038849 1036.336182,370.212738 
	C1032.207764,378.806091 1028.079468,387.399475 1023.337158,396.289093 
	C1014.865173,412.793152 1006.380127,429.290527 997.950684,445.816284 
	C997.380188,446.934662 997.229492,448.267120 996.247192,449.639160 
M406.183075,125.043312 
	C371.830200,135.032776 346.598053,154.302338 329.775787,187.581390 
	C259.795532,326.021576 188.088409,463.588104 117.225609,601.583435 
	C99.268822,636.551758 81.488907,671.638489 64.842171,707.238708 
	C57.990448,721.891602 53.234680,737.782715 49.520206,753.579712 
	C44.762531,773.813293 51.834290,790.735413 69.761620,801.640198 
	C79.908836,807.812561 91.077866,812.403076 102.060226,817.061096 
	C107.162270,819.224976 112.907188,820.959900 118.375977,821.004272 
	C173.203430,821.448730 228.033951,821.560974 282.863831,821.651733 
	C420.860229,821.880127 558.857056,821.924133 696.852844,822.335205 
	C728.635132,822.429871 756.140503,811.535034 780.566956,792.112366 
	C796.245483,779.645569 807.215393,763.832153 811.586121,743.888245 
	C812.287903,740.686035 813.386658,737.471130 814.876343,734.555481 
	C904.280701,559.568359 993.703430,384.590515 1083.269409,209.686020 
	C1092.212402,192.221909 1102.137817,175.262711 1111.442261,157.980453 
	C1114.114624,153.016953 1116.646362,147.891495 1118.460327,142.573517 
	C1120.829956,135.626602 1119.625244,132.146454 1112.593140,130.200653 
	C1097.898193,126.134521 1083.034546,121.336113 1067.987183,120.205009 
	C1046.452271,118.586266 1024.690796,119.980934 1002.495728,119.633217 
	C994.924805,105.908089 990.948181,91.937134 997.910767,76.516563 
	C1002.068604,67.307663 1008.460449,60.676868 1017.771729,57.204708 
	C1025.386353,54.365276 1032.685547,57.038582 1037.050537,64.183769 
	C1039.301636,67.868790 1040.308228,72.298965 1042.046143,76.319405 
	C1042.840576,78.156868 1044.096680,81.346985 1045.052368,81.313614 
	C1051.890015,81.074837 1058.704224,80.163536 1066.139526,79.403198 
	C1064.654663,73.749596 1063.643188,68.659416 1061.982300,63.790756 
	C1055.179443,43.849163 1038.288330,30.624901 1015.859131,34.848698 
	C994.558716,38.859921 973.940491,61.659534 973.469177,84.328094 
	C973.210632,96.764694 974.685608,108.468964 978.014954,120.078621 
	C948.981140,120.341759 919.947266,120.604897 890.486694,120.354080 
	C879.231445,100.414772 882.759216,80.781609 898.718323,66.936119 
	C908.442566,58.499771 924.176025,58.532642 929.149109,73.459412 
	C930.617249,77.866135 932.624390,82.093285 934.447327,86.556557 
	C941.523315,85.586479 948.047119,84.692093 955.928040,83.611664 
	C954.123901,77.195900 953.075745,71.236702 950.807617,65.785042 
	C940.420837,40.819145 917.249878,32.133156 893.982788,43.723663 
	C873.370422,53.991699 862.541260,71.473137 863.170227,94.835190 
	C863.404419,103.536873 865.600525,112.185738 865.977966,120.899971 
	C836.659973,121.045364 807.341919,121.190758 777.470032,120.858246 
	C766.991943,101.463997 769.049622,82.363060 785.007935,67.526207 
	C793.218140,59.892967 806.811096,58.321865 812.863892,67.616394 
	C815.647461,71.890800 816.802795,77.195404 819.089050,81.839630 
	C819.935791,83.559738 821.958496,85.985390 823.356750,85.928329 
	C829.574402,85.674614 835.760193,84.637703 842.363464,83.834564 
	C841.819153,80.540688 841.609741,77.912971 840.933960,75.411247 
	C837.370056,62.217800 831.595642,50.431858 818.988281,43.511398 
	C799.165588,32.630260 774.922791,41.764763 761.051147,59.881592 
	C749.291260,75.240433 748.078613,92.695984 751.521118,110.945465 
	C752.194946,114.517448 753.059021,118.053558 752.919861,121.596130 
	C722.623840,121.767326 692.327820,121.938522 661.537781,121.579422 
	C660.117004,117.504807 658.472229,113.492752 657.313843,109.344841 
	C652.081665,90.609222 664.768921,70.910522 677.542053,65.775757 
	C687.314148,61.847389 695.053894,63.967606 699.940430,73.133698 
	C701.751587,76.530945 702.512512,80.472649 704.062744,84.030823 
	C704.846863,85.830551 706.412292,88.791214 707.471008,88.726257 
	C714.329163,88.305534 721.145081,87.195961 728.247925,86.276779 
	C726.334778,79.814903 725.120850,74.017014 722.929382,68.615700 
	C714.736755,48.423244 699.693726,39.005566 678.220215,42.285404 
	C656.920532,45.538689 636.385315,67.526131 635.540771,90.938721 
	C635.155884,101.609077 635.802307,111.834389 637.965393,122.074104 
	C608.645386,122.347221 579.325378,122.620338 549.705872,122.247154 
	C540.614441,103.751724 544.317139,84.209099 560.419800,71.344566 
	C568.985840,64.501083 579.903992,62.750912 586.890808,72.660385 
	C589.722168,76.676094 591.505920,81.654633 592.802856,86.455338 
	C593.800659,90.148933 595.339783,91.495644 598.941895,90.959167 
	C604.493652,90.132317 610.056519,89.380203 616.892151,88.416252 
	C615.164062,82.406792 613.972839,76.692787 611.896729,71.320732 
	C603.586243,49.816639 584.655945,39.137085 561.746460,45.763172 
	C547.438477,49.901455 537.336853,59.625778 530.344055,72.460091 
	C527.634644,77.432915 524.757202,82.941132 524.319763,88.395020 
	C523.396973,99.899902 523.391663,111.583885 526.017639,122.899719 
	C493.956207,122.928101 461.894806,122.956474 429.309113,122.549820 
	C419.157227,102.462502 426.326477,80.834282 443.836121,70.233948 
	C452.587555,64.935837 464.357025,66.410347 469.101898,77.561195 
	C470.687500,81.287537 471.497009,85.346062 473.109314,89.058136 
	C473.725525,90.476814 475.620331,92.333527 476.890228,92.301765 
	C482.192505,92.169174 487.483093,91.433662 492.768951,90.838852 
	C495.402679,90.542480 496.384766,89.232658 495.782990,86.400414 
	C493.614960,76.196709 490.015900,66.827568 483.339905,58.498981 
	C474.884369,47.950378 459.617432,43.364357 448.560486,45.231430 
	C432.436340,47.954140 420.047943,56.882679 411.941193,70.873146 
	C408.251007,77.241577 405.415039,84.602219 404.283020,91.839920 
	C402.557770,102.870293 403.872711,114.076454 406.183075,125.043312 
z"/>
<path fill="#5FD5D4" opacity="1.000000" stroke="none" 
	d="
M429.833374,122.984856 
	C461.894806,122.956474 493.956207,122.928101 526.651855,123.206635 
	C532.492249,133.217056 537.698364,142.920578 542.595764,152.939133 
	C542.154358,154.577789 541.952698,155.898651 541.899780,157.225433 
	C541.467529,168.071136 549.361206,176.735550 559.946167,177.065704 
	C570.655029,177.399750 579.396973,169.705429 579.856018,159.541885 
	C580.342651,148.771194 572.250671,140.431702 560.661560,139.886459 
	C556.915771,134.106598 553.460571,128.500031 550.005371,122.893463 
	C579.325378,122.620338 608.645386,122.347221 638.558716,122.361771 
	C642.616577,129.514313 646.034119,136.403580 649.569824,143.231659 
	C650.911926,145.823517 652.526123,148.274506 653.894531,151.191010 
	C651.416138,163.224960 658.256653,173.256287 669.631470,174.848618 
	C680.142578,176.320038 690.274353,168.367096 691.040161,158.043777 
	C691.882141,146.693848 683.711304,138.079254 671.838196,137.676239 
	C668.462769,132.293167 665.247314,127.201447 662.031799,122.109718 
	C692.327820,121.938522 722.623840,121.767326 753.634644,121.867287 
	C759.225891,130.718582 764.102295,139.298721 768.839966,148.270264 
	C766.182739,159.895035 772.569519,170.136322 783.223694,171.948395 
	C794.283142,173.829407 804.693542,166.524689 805.853943,156.069275 
	C807.117004,144.688141 799.161255,135.844742 786.703369,134.948776 
	C783.610107,130.299805 780.817017,125.817993 778.023926,121.336166 
	C807.341919,121.190758 836.659973,121.045364 866.697327,121.129105 
	C872.249023,130.151260 877.081360,138.944305 881.595215,148.030029 
	C881.182922,149.638550 881.027466,150.953293 881.004883,152.270325 
	C880.810547,163.604904 888.510864,171.958313 899.349915,172.199814 
	C909.835876,172.433456 918.410461,164.930130 918.949463,155.048828 
	C919.551025,144.020416 911.794006,135.860748 899.730652,134.978958 
	C896.590637,130.161652 893.752075,125.514832 890.913452,120.868011 
	C919.947266,120.604897 948.981140,120.341759 978.617004,120.354980 
	C982.438171,126.256012 985.682312,131.866592 988.862732,137.513016 
	C989.978333,139.493469 990.937622,141.561966 991.870667,144.010406 
	C991.565796,145.740906 991.211487,147.047089 991.174500,148.362198 
	C990.882751,158.738678 999.536682,167.431519 1010.102417,167.437744 
	C1020.627319,167.443939 1029.072754,159.299362 1029.152588,149.066177 
	C1029.234497,138.578979 1021.504822,130.849380 1011.011169,130.965179 
	C1011.002197,130.996521 1011.067383,130.996582 1011.119019,130.731171 
	C1010.825623,130.382645 1010.480530,130.299515 1009.835815,130.030869 
	C1007.366089,126.593163 1005.196106,123.340996 1003.026123,120.088837 
	C1024.690796,119.980934 1046.452271,118.586266 1067.987183,120.205009 
	C1083.034546,121.336113 1097.898193,126.134521 1112.593140,130.200653 
	C1119.625244,132.146454 1120.829956,135.626602 1118.460327,142.573517 
	C1116.646362,147.891495 1114.114624,153.016953 1111.442261,157.980453 
	C1102.137817,175.262711 1092.212402,192.221909 1083.269409,209.686020 
	C993.703430,384.590515 904.280701,559.568359 814.876343,734.555481 
	C813.386658,737.471130 812.287903,740.686035 811.586121,743.888245 
	C807.215393,763.832153 796.245483,779.645569 780.566956,792.112366 
	C756.140503,811.535034 728.635132,822.429871 696.852844,822.335205 
	C558.857056,821.924133 420.860229,821.880127 282.863831,821.651733 
	C228.033951,821.560974 173.203430,821.448730 118.375977,821.004272 
	C112.907188,820.959900 107.162270,819.224976 102.060226,817.061096 
	C91.077866,812.403076 79.908836,807.812561 69.761620,801.640198 
	C51.834290,790.735413 44.762531,773.813293 49.520206,753.579712 
	C53.234680,737.782715 57.990448,721.891602 64.842171,707.238708 
	C81.488907,671.638489 99.268822,636.551758 117.225609,601.583435 
	C188.088409,463.588104 259.795532,326.021576 329.775787,187.581390 
	C346.598053,154.302338 371.830200,135.032776 406.817810,125.242538 
	C409.076874,129.223587 410.437134,133.148071 412.385284,136.754974 
	C415.590698,142.689545 419.176880,148.418472 422.439697,154.657898 
	C422.121674,157.390656 421.674744,159.723526 421.862061,162.004333 
	C422.647003,171.562149 431.839722,179.118484 441.637817,178.442612 
	C452.063751,177.723434 459.915009,169.555283 459.752960,159.596268 
	C459.593170,149.774734 451.881287,142.105881 442.001831,141.978348 
	C441.995331,142.006104 442.052307,142.006790 441.942627,141.802185 
	C441.649536,141.300537 441.383942,141.167587 440.708679,141.075745 
	C436.865234,134.963470 433.349304,128.974167 429.833374,122.984856 
M782.499634,258.850098 
	C658.940369,259.506287 535.381165,260.162476 411.991272,260.817780 
	C411.991272,275.296722 411.991272,289.008362 411.991272,302.984039 
	C572.550476,302.087402 732.580933,301.193726 892.454834,300.300934 
	C892.454834,285.712433 892.454834,272.002838 892.454834,258.841919 
	C855.803101,258.841919 819.651428,258.841919 782.499634,258.850098 
M746.500000,390.989288 
	C772.074036,390.989288 797.648071,390.989288 823.085449,390.989288 
	C823.085449,376.165497 823.085449,362.555542 823.085449,348.429688 
	C662.473145,349.328033 502.303101,350.223938 342.300232,351.118866 
	C342.300232,365.437836 342.300232,379.039337 342.300232,393.226044 
	C476.961975,392.478973 611.231018,391.734100 746.500000,390.989288 
z"/>
<path fill="#FEFEFE" opacity="1.000000" stroke="none" 
	d="
M1023.951050,395.992859 
	C1028.079468,387.399475 1032.207764,378.806091 1036.998291,370.321106 
	C1048.569214,370.429443 1059.478027,370.429443 1070.389404,370.429443 
	C1070.389404,361.139221 1070.389404,352.738678 1070.389404,344.043732 
	C1066.184204,344.043732 1062.359985,344.188385 1058.552979,343.994385 
	C1055.883423,343.858368 1053.237305,343.260468 1050.580811,342.868835 
	C1076.342896,292.491974 1102.050537,242.087189 1127.932251,191.771866 
	C1131.346924,185.133362 1135.772095,179.022400 1139.512817,172.542145 
	C1145.976807,161.343918 1150.985352,149.633286 1151.048462,135.453171 
	C1152.967041,136.884430 1154.393311,137.865677 1155.729126,138.957397 
	C1175.220215,154.885971 1185.843262,176.101562 1190.573975,200.206558 
	C1193.122681,213.192795 1194.687744,226.614517 1194.639771,239.832260 
	C1193.614868,521.829712 1192.327148,803.826294 1190.971558,1085.822388 
	C1190.880737,1104.717651 1187.799927,1123.277832 1182.428711,1141.446167 
	C1173.372925,1172.077271 1153.722046,1192.453369 1123.217773,1201.737915 
	C1105.749390,1207.054688 1087.930908,1211.223755 1070.254028,1215.847900 
	C1068.996216,1216.177002 1067.605347,1216.041382 1066.276123,1216.045654 
	C939.616150,1216.457886 812.956177,1216.844604 686.296265,1217.276611 
	C633.633850,1217.456177 580.941895,1218.896729 528.320068,1217.548584 
	C493.850128,1216.665283 460.439941,1208.325684 430.498077,1189.854370 
	C411.293213,1178.006592 396.772461,1161.614746 387.042999,1141.344849 
	C374.380890,1114.965210 365.367493,1087.582153 368.168701,1057.304321 
	C407.769318,1057.251221 446.735840,1057.620728 485.703156,1057.869507 
	C545.497375,1058.251343 605.291809,1058.627930 665.086792,1058.857422 
	C707.667664,1059.020874 750.275940,1060.026489 792.716064,1055.064087 
	C811.503174,1052.867310 829.821228,1049.217651 846.304565,1039.347290 
	C858.256470,1032.190430 868.917786,1023.586487 876.597046,1011.257080 
	C946.922241,1010.783630 1016.798279,1010.413574 1086.474854,1010.044495 
	C1086.474854,1000.902954 1086.474854,992.516113 1086.474854,984.006409 
	C1074.703979,984.006409 1063.384521,983.967957 1052.065430,984.012939 
	C999.092285,984.223572 946.119263,984.457214 893.109131,984.316467 
	C897.062439,971.846436 901.567871,959.882751 904.908997,947.602234 
	C908.818176,933.234009 911.712646,918.589722 915.510132,904.012085 
	C973.539490,903.645020 1031.106079,903.330994 1088.476196,903.018066 
	C1088.476196,893.899292 1088.476196,885.509705 1088.476196,876.998840 
	C1076.369751,876.998840 1064.714111,876.965576 1053.058716,877.004822 
	C1009.068909,877.153015 965.079102,877.324829 921.061707,877.099731 
	C923.915344,862.993103 926.821655,849.279846 929.670105,835.554626 
	C932.184204,823.440430 934.633667,811.312744 937.559875,799.073181 
	C986.870728,798.606995 1035.733398,798.258606 1084.541626,797.910583 
	C1084.541626,788.968994 1084.541626,780.574829 1084.541626,771.944641 
	C1076.843140,771.944641 1069.533447,771.934998 1062.223755,771.946289 
	C1022.771484,772.007141 983.319275,772.073181 943.870483,771.707520 
	C946.808533,757.369019 949.774292,743.466980 952.668823,729.550171 
	C955.529114,715.797974 958.317505,702.030884 961.587036,688.168213 
	C1000.129883,688.066101 1038.223145,688.066101 1076.400146,688.066101 
	C1076.400146,678.253052 1076.400146,669.844788 1076.400146,661.076172 
	C1074.238892,661.076172 1072.431030,661.068909 1070.623047,661.077209 
	C1036.462036,661.233459 1002.301086,661.391479 968.087402,661.155518 
	C970.844727,647.188477 973.654053,633.614929 976.465393,620.041748 
	C979.011047,607.751038 981.558899,595.460815 984.558350,583.071899 
	C1014.179626,582.973511 1043.348389,582.973511 1072.401367,582.973511 
	C1072.401367,573.197449 1072.401367,564.790405 1072.401367,556.205994 
	C1044.947510,556.205994 1017.871399,556.205994 990.811768,555.765015 
	C994.085022,539.797180 997.378967,524.277954 1000.586182,508.740906 
	C1002.823181,497.903412 1004.941528,487.041412 1007.560791,476.070557 
	C1030.106323,475.950775 1052.203857,475.950775 1074.304443,475.950775 
	C1074.304443,466.307495 1074.304443,457.790009 1074.304443,449.111084 
	C1053.856934,449.111084 1033.876343,449.111084 1013.894104,448.689850 
	C1017.068054,433.505951 1020.297668,418.754517 1023.368164,403.970001 
	C1023.905640,401.382202 1023.773804,398.655426 1023.951050,395.992859 
M989.500061,1089.175415 
	C811.633301,1089.962646 633.766541,1090.749756 455.810852,1091.537354 
	C455.810852,1100.580811 455.810852,1109.114136 455.810852,1117.887207 
	C667.756836,1116.982422 879.230408,1116.079590 1090.621338,1115.177124 
	C1090.621338,1105.993408 1090.621338,1097.725098 1090.621338,1089.174683 
	C1057.045410,1089.174683 1023.772705,1089.174683 989.500061,1089.175415 
z"/>
<path fill="#BCBCBC" opacity="1.000000" stroke="none" 
	d="
M876.147888,1011.360474 
	C868.917786,1023.586487 858.256470,1032.190430 846.304565,1039.347290 
	C829.821228,1049.217651 811.503174,1052.867310 792.716064,1055.064087 
	C750.275940,1060.026489 707.667664,1059.020874 665.086792,1058.857422 
	C605.291809,1058.627930 545.497375,1058.251343 485.703156,1057.869507 
	C446.735840,1057.620728 407.769318,1057.251221 368.323914,1056.920410 
	C367.810669,1049.251587 367.674927,1041.596924 367.757233,1033.944702 
	C368.389740,975.120728 369.063751,916.297058 369.732605,857.473389 
	C369.745728,856.318054 369.851776,855.163818 369.956787,853.229614 
	C372.113129,853.229614 374.191467,853.225525 376.269806,853.230286 
	C484.588776,853.479187 592.909729,854.199646 701.225830,853.752747 
	C746.209106,853.567200 783.996704,834.907104 815.208069,802.737793 
	C816.475586,801.431396 817.784180,800.164856 819.844360,798.916748 
	C857.464539,798.940613 894.313965,798.923218 931.163452,798.926392 
	C933.146179,798.926575 935.128906,799.098877 937.111633,799.191040 
	C934.633667,811.312744 932.184204,823.440430 929.670105,835.554626 
	C926.821655,849.279846 923.915344,862.993103 920.603760,877.217163 
	C841.377502,878.077515 762.581726,878.484863 683.785522,878.768494 
	C632.134888,878.954468 580.483582,878.958679 528.832581,879.050171 
	C505.339752,879.091797 481.846466,879.097107 458.355011,879.302551 
	C456.646088,879.317505 453.516876,880.761597 453.472870,881.659973 
	C453.085632,889.570557 453.248444,897.508057 453.248444,905.904114 
	C456.343994,905.904114 458.311890,905.916321 460.279572,905.902283 
	C495.753906,905.649109 531.227905,905.331116 566.702637,905.149963 
	C636.166748,904.795166 705.631165,904.457397 775.095764,904.226440 
	C821.745911,904.071350 868.396729,904.112061 915.047241,904.065186 
	C911.712646,918.589722 908.818176,933.234009 904.908997,947.602234 
	C901.567871,959.882751 897.062439,971.846436 892.639404,984.415161 
	C821.250488,985.185669 750.294434,985.537720 679.337952,985.780701 
	C630.026184,985.949585 580.713867,985.967224 531.401794,986.055237 
	C506.579163,986.099548 481.755615,986.273010 456.934692,986.089661 
	C452.208282,986.054810 450.781189,987.536194 451.117859,992.073242 
	C451.474487,996.878784 451.524750,1001.754822 451.139465,1006.554382 
	C450.742432,1011.500610 452.212006,1013.174072 457.452209,1013.058533 
	C481.087891,1012.537292 504.732697,1012.340393 528.375183,1012.231384 
	C611.990845,1011.845886 695.606812,1011.538086 779.222717,1011.215637 
	C798.047791,1011.143066 816.873169,1011.086365 835.698303,1011.105286 
	C849.181580,1011.118835 862.664673,1011.270447 876.147888,1011.360474 
z"/>
<path fill="#BBBBBB" opacity="1.000000" stroke="none" 
	d="
M961.137451,688.270325 
	C958.317505,702.030884 955.529114,715.797974 952.668823,729.550171 
	C949.774292,743.466980 946.808533,757.369019 943.413574,771.752563 
	C907.088562,772.505737 871.223877,772.783936 835.359253,773.062134 
	C840.618042,754.637756 848.175232,737.200745 857.452087,720.442078 
	C863.320557,709.840637 868.673218,698.953674 875.012939,688.115967 
	C889.418274,688.044006 903.067810,688.026001 916.717285,688.064209 
	C931.524048,688.105652 946.330750,688.199341 961.137451,688.270325 
z"/>
<path fill="#656565" opacity="1.000000" stroke="none" 
	d="
M835.121094,773.258423 
	C871.223877,772.783936 907.088562,772.505737 943.410095,772.182495 
	C983.319275,772.073181 1022.771484,772.007141 1062.223755,771.946289 
	C1069.533447,771.934998 1076.843140,771.944641 1084.541626,771.944641 
	C1084.541626,780.574829 1084.541626,788.968994 1084.541626,797.910583 
	C1035.733398,798.258606 986.870728,798.606995 937.559875,799.073242 
	C935.128906,799.098877 933.146179,798.926575 931.163452,798.926392 
	C894.313965,798.923218 857.464539,798.940613 820.151733,798.774048 
	C822.628479,794.098572 825.682617,789.672180 828.473083,785.085449 
	C830.771790,781.307068 832.758179,777.338745 835.121094,773.258423 
z"/>
<path fill="#BBBBBB" opacity="1.000000" stroke="none" 
	d="
M984.105835,583.170349 
	C981.558899,595.460815 979.011047,607.751038 976.465393,620.041748 
	C973.654053,633.614929 970.844727,647.188477 967.622314,661.269409 
	C940.760986,661.854248 914.312012,661.931580 887.862976,662.008911 
	C888.329102,660.783142 888.684875,659.501160 889.277466,658.339966 
	C901.595764,634.200562 913.937744,610.073242 926.291016,585.951782 
	C926.817261,584.924316 927.496826,583.975342 928.876831,582.945557 
	C947.801025,582.990967 965.953369,583.080688 984.105835,583.170349 
z"/>
<path fill="#656565" opacity="1.000000" stroke="none" 
	d="
M887.580566,662.195557 
	C914.312012,661.931580 940.760986,661.854248 967.675049,661.663086 
	C1002.301086,661.391479 1036.462036,661.233459 1070.623047,661.077209 
	C1072.431030,661.068909 1074.238892,661.076172 1076.400146,661.076172 
	C1076.400146,669.844788 1076.400146,678.253052 1076.400146,688.066101 
	C1038.223145,688.066101 1000.129883,688.066101 961.587036,688.168213 
	C946.330750,688.199341 931.524048,688.105652 916.717285,688.064209 
	C903.067810,688.026001 889.418274,688.044006 875.299194,687.924316 
	C878.985779,679.335083 883.142029,670.858704 887.580566,662.195557 
z"/>
<path fill="#828382" opacity="1.000000" stroke="none" 
	d="
M1002.760986,119.861023 
	C1005.196106,123.340996 1007.366089,126.593163 1009.939148,130.217896 
	C1010.519836,130.840317 1010.761597,130.975693 1011.067383,130.996582 
	C1011.067383,130.996582 1011.002197,130.996521 1010.993835,131.319550 
	C1012.330261,133.315872 1013.843445,134.886841 1014.948853,136.705597 
	C1015.500916,137.614029 1015.872009,139.510559 1015.362732,140.047607 
	C1011.067627,144.577103 1006.549927,148.895538 1002.200378,153.177612 
	C998.413696,149.629578 995.190979,146.609924 991.968262,143.590271 
	C990.937622,141.561966 989.978333,139.493469 988.862732,137.513016 
	C985.682312,131.866592 982.438171,126.256012 979.080017,120.308197 
	C974.685608,108.468964 973.210632,96.764694 973.469177,84.328094 
	C973.940491,61.659534 994.558716,38.859921 1015.859131,34.848698 
	C1038.288330,30.624901 1055.179443,43.849163 1061.982300,63.790756 
	C1063.643188,68.659416 1064.654663,73.749596 1066.139526,79.403198 
	C1058.704224,80.163536 1051.890015,81.074837 1045.052368,81.313614 
	C1044.096680,81.346985 1042.840576,78.156868 1042.046143,76.319405 
	C1040.308228,72.298965 1039.301636,67.868790 1037.050537,64.183769 
	C1032.685547,57.038582 1025.386353,54.365276 1017.771729,57.204708 
	C1008.460449,60.676868 1002.068604,67.307663 997.910767,76.516563 
	C990.948181,91.937134 994.924805,105.908089 1002.760986,119.861023 
z"/>
<path fill="#828281" opacity="1.000000" stroke="none" 
	d="
M768.978638,147.878830 
	C764.102295,139.298721 759.225891,130.718582 754.092407,121.872330 
	C753.059021,118.053558 752.194946,114.517448 751.521118,110.945465 
	C748.078613,92.695984 749.291260,75.240433 761.051147,59.881592 
	C774.922791,41.764763 799.165588,32.630260 818.988281,43.511398 
	C831.595642,50.431858 837.370056,62.217800 840.933960,75.411247 
	C841.609741,77.912971 841.819153,80.540688 842.363464,83.834564 
	C835.760193,84.637703 829.574402,85.674614 823.356750,85.928329 
	C821.958496,85.985390 819.935791,83.559738 819.089050,81.839630 
	C816.802795,77.195404 815.647461,71.890800 812.863892,67.616394 
	C806.811096,58.321865 793.218140,59.892967 785.007935,67.526207 
	C769.049622,82.363060 766.991943,101.463997 777.746948,121.097214 
	C780.817017,125.817993 783.610107,130.299805 786.748413,135.282318 
	C789.132446,138.339203 791.171204,140.895401 793.586121,143.923141 
	C789.412231,147.852554 785.232300,151.569901 781.321960,155.552002 
	C779.029236,157.886749 777.461304,157.239395 775.642151,155.142502 
	C773.489868,152.661560 771.205750,150.294968 768.978638,147.878830 
z"/>
<path fill="#828281" opacity="1.000000" stroke="none" 
	d="
M881.913635,147.737350 
	C877.081360,138.944305 872.249023,130.151260 867.159424,121.108459 
	C865.600525,112.185738 863.404419,103.536873 863.170227,94.835190 
	C862.541260,71.473137 873.370422,53.991699 893.982788,43.723663 
	C917.249878,32.133156 940.420837,40.819145 950.807617,65.785042 
	C953.075745,71.236702 954.123901,77.195900 955.928040,83.611664 
	C948.047119,84.692093 941.523315,85.586479 934.447327,86.556557 
	C932.624390,82.093285 930.617249,77.866135 929.149109,73.459412 
	C924.176025,58.532642 908.442566,58.499771 898.718323,66.936119 
	C882.759216,80.781609 879.231445,100.414772 890.700073,120.611038 
	C893.752075,125.514832 896.590637,130.161652 899.783325,135.307709 
	C902.166931,138.376892 904.196472,140.946869 905.656738,142.796005 
	C900.730957,147.856491 896.046570,152.668945 891.222534,157.624863 
	C888.247742,154.465164 885.080688,151.101273 881.913635,147.737350 
z"/>
<path fill="#828382" opacity="1.000000" stroke="none" 
	d="
M422.602539,154.234100 
	C419.176880,148.418472 415.590698,142.689545 412.385284,136.754974 
	C410.437134,133.148071 409.076874,129.223587 407.196960,125.190186 
	C403.872711,114.076454 402.557770,102.870293 404.283020,91.839920 
	C405.415039,84.602219 408.251007,77.241577 411.941193,70.873146 
	C420.047943,56.882679 432.436340,47.954140 448.560486,45.231430 
	C459.617432,43.364357 474.884369,47.950378 483.339905,58.498981 
	C490.015900,66.827568 493.614960,76.196709 495.782990,86.400414 
	C496.384766,89.232658 495.402679,90.542480 492.768951,90.838852 
	C487.483093,91.433662 482.192505,92.169174 476.890228,92.301765 
	C475.620331,92.333527 473.725525,90.476814 473.109314,89.058136 
	C471.497009,85.346062 470.687500,81.287537 469.101898,77.561195 
	C464.357025,66.410347 452.587555,64.935837 443.836121,70.233948 
	C426.326477,80.834282 419.157227,102.462502 429.571228,122.767342 
	C433.349304,128.974167 436.865234,134.963470 440.813599,141.288666 
	C441.425446,141.940552 441.694183,142.067963 442.052307,142.006790 
	C442.052307,142.006790 441.995331,142.006104 441.901184,142.334061 
	C443.475677,145.081619 445.144318,147.501205 447.090881,150.323746 
	C442.291504,154.838562 437.482300,159.362625 431.952240,164.564804 
	C428.733093,161.007935 425.667786,157.621033 422.602539,154.234100 
z"/>
<path fill="#828382" opacity="1.000000" stroke="none" 
	d="
M661.784790,121.844574 
	C665.247314,127.201447 668.462769,132.293167 671.962769,137.992142 
	C674.285889,141.178284 676.324402,143.757172 678.638672,146.684860 
	C673.635742,151.374466 668.847229,155.863144 662.992859,161.350876 
	C659.773071,157.562744 656.894653,154.176239 654.016357,150.789734 
	C652.526123,148.274506 650.911926,145.823517 649.569824,143.231659 
	C646.034119,136.403580 642.616577,129.514313 639.017639,122.310028 
	C635.802307,111.834389 635.155884,101.609077 635.540771,90.938721 
	C636.385315,67.526131 656.920532,45.538689 678.220215,42.285404 
	C699.693726,39.005566 714.736755,48.423244 722.929382,68.615700 
	C725.120850,74.017014 726.334778,79.814903 728.247925,86.276779 
	C721.145081,87.195961 714.329163,88.305534 707.471008,88.726257 
	C706.412292,88.791214 704.846863,85.830551 704.062744,84.030823 
	C702.512512,80.472649 701.751587,76.530945 699.940430,73.133698 
	C695.053894,63.967606 687.314148,61.847389 677.542053,65.775757 
	C664.768921,70.910522 652.081665,90.609222 657.313843,109.344841 
	C658.472229,113.492752 660.117004,117.504807 661.784790,121.844574 
z"/>
<path fill="#828382" opacity="1.000000" stroke="none" 
	d="
M542.904480,152.624084 
	C537.698364,142.920578 532.492249,133.217056 527.116943,123.187981 
	C523.391663,111.583885 523.396973,99.899902 524.319763,88.395020 
	C524.757202,82.941132 527.634644,77.432915 530.344055,72.460091 
	C537.336853,59.625778 547.438477,49.901455 561.746460,45.763172 
	C584.655945,39.137085 603.586243,49.816639 611.896729,71.320732 
	C613.972839,76.692787 615.164062,82.406792 616.892151,88.416252 
	C610.056519,89.380203 604.493652,90.132317 598.941895,90.959167 
	C595.339783,91.495644 593.800659,90.148933 592.802856,86.455338 
	C591.505920,81.654633 589.722168,76.676094 586.890808,72.660385 
	C579.903992,62.750912 568.985840,64.501083 560.419800,71.344566 
	C544.317139,84.209099 540.614441,103.751724 549.855591,122.570305 
	C553.460571,128.500031 556.915771,134.106598 560.695251,140.227692 
	C563.072754,143.297348 565.126038,145.852478 566.301086,147.314774 
	C562.180786,152.116928 558.416992,156.745300 554.298035,161.032455 
	C553.708740,161.645844 550.960205,161.109192 549.976074,160.239243 
	C547.393250,157.956039 545.233093,155.194809 542.904480,152.624084 
z"/>
<path fill="#676767" opacity="1.000000" stroke="none" 
	d="
M984.558289,583.071899 
	C965.953369,583.080688 947.801025,582.990967 929.176636,582.763184 
	C932.808655,574.204834 936.912659,565.784668 941.785889,557.132080 
	C958.635132,556.668396 974.715210,556.437195 990.795288,556.205994 
	C1017.871399,556.205994 1044.947510,556.205994 1072.401367,556.205994 
	C1072.401367,564.790405 1072.401367,573.197449 1072.401367,582.973511 
	C1043.348389,582.973511 1014.179626,582.973511 984.558289,583.071899 
z"/>
<path fill="#BBBBBB" opacity="1.000000" stroke="none" 
	d="
M990.811768,555.765015 
	C974.715210,556.437195 958.635132,556.668396 942.052551,556.945923 
	C942.022156,555.763794 942.386475,554.480286 942.982239,553.315063 
	C956.100281,527.655273 969.243958,502.008636 983.105957,476.128052 
	C991.590393,475.994568 999.351685,476.092468 1007.112915,476.190369 
	C1004.941528,487.041412 1002.823181,497.903412 1000.586182,508.740906 
	C997.378967,524.277954 994.085022,539.797180 990.811768,555.765015 
z"/>
<path fill="#666666" opacity="1.000000" stroke="none" 
	d="
M1007.560791,476.070557 
	C999.351685,476.092468 991.590393,475.994568 983.352234,475.884827 
	C987.332642,467.128387 991.789917,458.383789 997.023804,449.467041 
	C1003.165527,449.233643 1008.530640,449.172363 1013.895752,449.111084 
	C1033.876343,449.111084 1053.856934,449.111084 1074.304443,449.111084 
	C1074.304443,457.790009 1074.304443,466.307495 1074.304443,475.950775 
	C1052.203857,475.950775 1030.106323,475.950775 1007.560791,476.070557 
z"/>
<path fill="#666666" opacity="1.000000" stroke="none" 
	d="
M1050.279785,343.042358 
	C1053.237305,343.260468 1055.883423,343.858368 1058.552979,343.994385 
	C1062.359985,344.188385 1066.184204,344.043732 1070.389404,344.043732 
	C1070.389404,352.738678 1070.389404,361.139221 1070.389404,370.429443 
	C1059.478027,370.429443 1048.569214,370.429443 1037.329590,370.189880 
	C1041.325439,361.038849 1045.652100,352.127350 1050.279785,343.042358 
z"/>
<path fill="#B9B9B9" opacity="1.000000" stroke="none" 
	d="
M1013.894104,448.689850 
	C1008.530640,449.172363 1003.165527,449.233643 997.342041,449.397522 
	C997.229492,448.267120 997.380188,446.934662 997.950684,445.816284 
	C1006.380127,429.290527 1014.865173,412.793152 1023.644104,396.140961 
	C1023.773804,398.655426 1023.905640,401.382202 1023.368164,403.970001 
	C1020.297668,418.754517 1017.068054,433.505951 1013.894104,448.689850 
z"/>
<path fill="#171819" opacity="1.000000" stroke="none" 
	d="
M782.999695,258.846008 
	C819.651428,258.841919 855.803101,258.841919 892.454834,258.841919 
	C892.454834,272.002838 892.454834,285.712433 892.454834,300.300934 
	C732.580933,301.193726 572.550476,302.087402 411.991272,302.984039 
	C411.991272,289.008362 411.991272,275.296722 411.991272,260.817780 
	C535.381165,260.162476 658.940369,259.506287 782.999695,258.846008 
z"/>
<path fill="#171819" opacity="1.000000" stroke="none" 
	d="
M746.000000,390.989258 
	C611.231018,391.734100 476.961975,392.478973 342.300232,393.226044 
	C342.300232,379.039337 342.300232,365.437836 342.300232,351.118866 
	C502.303101,350.223938 662.473145,349.328033 823.085449,348.429688 
	C823.085449,362.555542 823.085449,376.165497 823.085449,390.989288 
	C797.648071,390.989288 772.074036,390.989288 746.000000,390.989258 
z"/>
<path fill="#282B2E" opacity="1.000000" stroke="none" 
	d="
M542.595764,152.939117 
	C545.233093,155.194809 547.393250,157.956039 549.976074,160.239243 
	C550.960205,161.109192 553.708740,161.645844 554.298035,161.032455 
	C558.416992,156.745300 562.180786,152.116928 566.301086,147.314774 
	C565.126038,145.852478 563.072754,143.297348 560.985840,140.400986 
	C572.250671,140.431702 580.342651,148.771194 579.856018,159.541885 
	C579.396973,169.705429 570.655029,177.399750 559.946167,177.065704 
	C549.361206,176.735550 541.467529,168.071136 541.899780,157.225433 
	C541.952698,155.898651 542.154358,154.577789 542.595764,152.939117 
z"/>
<path fill="#282B2E" opacity="1.000000" stroke="none" 
	d="
M653.894470,151.191040 
	C656.894653,154.176239 659.773071,157.562744 662.992859,161.350876 
	C668.847229,155.863144 673.635742,151.374466 678.638672,146.684860 
	C676.324402,143.757172 674.285889,141.178284 672.122681,138.283478 
	C683.711304,138.079254 691.882141,146.693848 691.040161,158.043777 
	C690.274353,168.367096 680.142578,176.320038 669.631470,174.848618 
	C658.256653,173.256287 651.416138,163.224960 653.894470,151.191040 
z"/>
<path fill="#282B2E" opacity="1.000000" stroke="none" 
	d="
M422.439697,154.657928 
	C425.667786,157.621033 428.733093,161.007935 431.952240,164.564804 
	C437.482300,159.362625 442.291504,154.838562 447.090881,150.323746 
	C445.144318,147.501205 443.475677,145.081619 441.907654,142.306305 
	C451.881287,142.105881 459.593170,149.774734 459.752960,159.596268 
	C459.915009,169.555283 452.063751,177.723434 441.637817,178.442612 
	C431.839722,179.118484 422.647003,171.562149 421.862061,162.004333 
	C421.674744,159.723526 422.121674,157.390656 422.439697,154.657928 
z"/>
<path fill="#282B2E" opacity="1.000000" stroke="none" 
	d="
M768.840027,148.270264 
	C771.205750,150.294968 773.489868,152.661560 775.642151,155.142502 
	C777.461304,157.239395 779.029236,157.886749 781.321960,155.552002 
	C785.232300,151.569901 789.412231,147.852554 793.586121,143.923141 
	C791.171204,140.895401 789.132446,138.339203 787.048645,135.449478 
	C799.161255,135.844742 807.117004,144.688141 805.853943,156.069275 
	C804.693542,166.524689 794.283142,173.829407 783.223694,171.948395 
	C772.569519,170.136322 766.182739,159.895035 768.840027,148.270264 
z"/>
<path fill="#282B2E" opacity="1.000000" stroke="none" 
	d="
M881.595215,148.030060 
	C885.080688,151.101273 888.247742,154.465164 891.222534,157.624863 
	C896.046570,152.668945 900.730957,147.856491 905.656738,142.796005 
	C904.196472,140.946869 902.166931,138.376892 900.084717,135.478180 
	C911.794006,135.860748 919.551025,144.020416 918.949463,155.048828 
	C918.410461,164.930130 909.835876,172.433456 899.349915,172.199814 
	C888.510864,171.958313 880.810547,163.604904 881.004883,152.270325 
	C881.027466,150.953293 881.182922,149.638550 881.595215,148.030060 
z"/>
<path fill="#282B2E" opacity="1.000000" stroke="none" 
	d="
M991.870605,144.010437 
	C995.190979,146.609924 998.413696,149.629578 1002.200378,153.177612 
	C1006.549927,148.895538 1011.067627,144.577103 1015.362732,140.047607 
	C1015.872009,139.510559 1015.500916,137.614029 1014.948853,136.705597 
	C1013.843445,134.886841 1012.330261,133.315872 1011.002808,131.288208 
	C1021.504822,130.849380 1029.234497,138.578979 1029.152588,149.066177 
	C1029.072754,159.299362 1020.627319,167.443939 1010.102417,167.437744 
	C999.536682,167.431519 990.882751,158.738678 991.174500,148.362198 
	C991.211487,147.047089 991.565796,145.740906 991.870605,144.010437 
z"/>
<path fill="#282B2E" opacity="1.000000" stroke="none" 
	d="
M441.942627,141.802185 
	C441.694183,142.067963 441.425446,141.940552 441.141113,141.411652 
	C441.383942,141.167587 441.649536,141.300537 441.942627,141.802185 
z"/>
<path fill="#282B2E" opacity="1.000000" stroke="none" 
	d="
M1011.119019,130.731171 
	C1010.761597,130.975693 1010.519836,130.840317 1010.238892,130.403427 
	C1010.480530,130.299515 1010.825623,130.382645 1011.119019,130.731171 
z"/>
<path fill="#666666" opacity="1.000000" stroke="none" 
	d="
M990.000000,1089.175049 
	C1023.772705,1089.174683 1057.045410,1089.174683 1090.621338,1089.174683 
	C1090.621338,1097.725098 1090.621338,1105.993408 1090.621338,1115.177124 
	C879.230408,1116.079590 667.756836,1116.982422 455.810852,1117.887207 
	C455.810852,1109.114136 455.810852,1100.580811 455.810852,1091.537354 
	C633.766541,1090.749756 811.633301,1089.962646 990.000000,1089.175049 
z"/>
<path fill="#656565" opacity="1.000000" stroke="none" 
	d="
M876.597046,1011.257080 
	C862.664673,1011.270447 849.181580,1011.118835 835.698303,1011.105286 
	C816.873169,1011.086365 798.047791,1011.143066 779.222717,1011.215637 
	C695.606812,1011.538086 611.990845,1011.845886 528.375183,1012.231384 
	C504.732697,1012.340393 481.087891,1012.537292 457.452209,1013.058533 
	C452.212006,1013.174072 450.742432,1011.500610 451.139465,1006.554382 
	C451.524750,1001.754822 451.474487,996.878784 451.117859,992.073242 
	C450.781189,987.536194 452.208282,986.054810 456.934692,986.089661 
	C481.755615,986.273010 506.579163,986.099548 531.401794,986.055237 
	C580.713867,985.967224 630.026184,985.949585 679.337952,985.780701 
	C750.294434,985.537720 821.250488,985.185669 892.676453,984.781372 
	C946.119263,984.457214 999.092285,984.223572 1052.065430,984.012939 
	C1063.384521,983.967957 1074.703979,984.006409 1086.474854,984.006409 
	C1086.474854,992.516113 1086.474854,1000.902954 1086.474854,1010.044495 
	C1016.798279,1010.413574 946.922241,1010.783630 876.597046,1011.257080 
z"/>
<path fill="#656565" opacity="1.000000" stroke="none" 
	d="
M915.510071,904.012085 
	C868.396729,904.112061 821.745911,904.071350 775.095764,904.226440 
	C705.631165,904.457397 636.166748,904.795166 566.702637,905.149963 
	C531.227905,905.331116 495.753906,905.649109 460.279572,905.902283 
	C458.311890,905.916321 456.343994,905.904114 453.248444,905.904114 
	C453.248444,897.508057 453.085632,889.570557 453.472870,881.659973 
	C453.516876,880.761597 456.646088,879.317505 458.355011,879.302551 
	C481.846466,879.097107 505.339752,879.091797 528.832581,879.050171 
	C580.483582,878.958679 632.134888,878.954468 683.785522,878.768494 
	C762.581726,878.484863 841.377502,878.077515 920.631348,877.605286 
	C965.079102,877.324829 1009.068909,877.153015 1053.058716,877.004822 
	C1064.714111,876.965576 1076.369751,876.998840 1088.476196,876.998840 
	C1088.476196,885.509705 1088.476196,893.899292 1088.476196,903.018066 
	C1031.106079,903.330994 973.539490,903.645020 915.510071,904.012085 
z"/>
</svg>